<svg width="111" height="20" viewBox="0 0 111 20" fill="none" xmlns="http://www.w3.org/2000/svg">
<g clip-path="url(#clip0_2033_385)">
<path d="M25.1855 2.3707C25.9965 13.3565 18.9356 18.549 12.6057 19.1027C6.72078 19.6174 1.18138 16.0009 0.695418 10.4444C0.294547 5.85387 3.1314 3.89953 5.36028 3.70471C7.65276 3.50374 9.57916 5.08486 9.74628 6.99921C9.90726 8.83978 8.75898 9.67748 7.96031 9.74722C7.32874 9.80257 6.5342 9.41907 6.46242 8.59571C6.40094 7.88823 6.66955 7.79181 6.60389 7.04023C6.48706 5.70214 5.32031 5.54627 4.68158 5.60164C3.90854 5.66934 2.506 6.57165 2.70285 8.81927C2.90072 11.0864 5.07425 12.8776 7.92342 12.6285C10.9981 12.3598 13.1389 9.9656 13.2998 6.60754C13.2983 6.42965 13.3358 6.25361 13.4095 6.09177L13.4105 6.08769C13.4436 6.01733 13.4824 5.94977 13.5264 5.88568C13.592 5.78722 13.6761 5.67855 13.7848 5.5596C13.7857 5.55653 13.7857 5.55653 13.7878 5.55653C13.8667 5.46732 13.9621 5.37093 14.0697 5.26737C15.4128 4.00001 20.2499 1.01107 24.8246 1.95748C24.9212 1.97821 25.0086 2.02965 25.0737 2.10412C25.1387 2.1786 25.1779 2.27211 25.1855 2.3707Z" fill="url(#paint0_linear_2033_385)"/>
<path d="M36.5366 7.08005V17.9294C36.5366 17.9443 36.5306 17.9587 36.5201 17.9692C36.5095 17.9798 36.4952 17.9858 36.4802 17.9858H34.1692C34.1544 17.9858 34.1399 17.9798 34.1294 17.9692C34.1188 17.9587 34.1128 17.9443 34.1128 17.9294V7.08005C34.1128 7.06661 34.1183 7.0537 34.1277 7.0442C34.1372 7.03466 34.1502 7.0293 34.1636 7.0293H36.4858C36.4994 7.0293 36.5121 7.03466 36.5218 7.0442C36.5312 7.0537 36.5366 7.06661 36.5366 7.08005Z" fill="#111D4A"/>
<path d="M54.6594 3.16064C54.6475 3.16064 54.6361 3.16541 54.6276 3.17386C54.619 3.18232 54.6143 3.1938 54.6143 3.20577V5.1512C54.6143 5.16465 54.6195 5.17756 54.629 5.18708C54.6385 5.1966 54.6518 5.20194 54.6651 5.20194H59.2982V17.929C59.2982 17.944 59.3043 17.9583 59.3148 17.9689C59.3252 17.9795 59.3395 17.9854 59.3547 17.9854H61.7612C61.7764 17.9854 61.7906 17.9795 61.8011 17.9689C61.8115 17.9583 61.8177 17.944 61.8177 17.929V5.20194H66.079C66.0952 5.20194 66.1113 5.19542 66.1227 5.18377C66.1346 5.17214 66.1412 5.15637 66.1412 5.13991V3.20577C66.1412 3.1938 66.136 3.18232 66.1275 3.17386C66.1194 3.16541 66.1075 3.16064 66.0957 3.16064H54.6594Z" fill="#111D4A"/>
<path d="M55.5025 17.9238C55.5025 17.9403 55.4964 17.9561 55.4845 17.9677C55.4731 17.9793 55.457 17.9859 55.4408 17.9859H53.1862C53.1696 17.9859 53.1539 17.9793 53.1421 17.9677C53.1307 17.9561 53.124 17.9403 53.124 17.9238V11.6026C53.1221 11.2949 53.0975 10.9876 53.0509 10.6835C52.8928 9.59515 52.4869 8.86209 51.0332 8.86209H50.971C50.5295 8.87823 50.0984 9.0001 49.7139 9.21734C49.213 9.48111 48.7877 9.86951 48.4795 10.3451C48.5251 10.6967 48.5474 11.0508 48.5474 11.4052V18.0648C48.5474 18.0798 48.5413 18.0941 48.5308 18.1047C48.5204 18.1152 48.5061 18.1212 48.4909 18.1212H46.2702C46.2537 18.1212 46.2379 18.1147 46.2264 18.103C46.2148 18.0914 46.2082 18.0756 46.2082 18.0592V12.2511C46.2082 11.2191 46.2702 10.1139 45.7574 9.4993C45.5446 9.26909 45.2806 9.09248 44.9868 8.98367C44.6928 8.87495 44.3776 8.83711 44.0663 8.87334C43.6339 8.89252 43.2099 9 42.8206 9.18914C42.5567 9.29947 42.316 9.45823 42.1104 9.65715C41.8676 9.88745 41.6889 10.177 41.5919 10.4974V17.9238C41.5919 17.9403 41.5853 17.9561 41.5738 17.9677C41.5622 17.9793 41.5464 17.9859 41.5298 17.9859H39.2752C39.2589 17.9859 39.2431 17.9793 39.2314 17.9677C39.2198 17.9561 39.2134 17.9403 39.2134 17.9238V7.15345C39.2134 7.1385 39.2192 7.12416 39.2298 7.11357C39.2403 7.10303 39.2548 7.0971 39.2696 7.0971H40.2335C40.4214 7.09644 40.6046 7.15568 40.7566 7.26621C40.9086 7.37673 41.0216 7.53273 41.079 7.71171C41.1241 7.86962 41.1804 8.00497 41.2029 8.07262C42.1567 7.24347 43.3836 6.79748 44.6469 6.82079C45.1341 6.78685 45.6229 6.85735 46.0807 7.0275C46.5385 7.19765 46.9549 7.46361 47.3017 7.80757C47.464 8.00136 47.6092 8.20892 47.7356 8.42788C48.2175 7.91609 48.8019 7.51232 49.4509 7.24309C50.0999 6.97385 50.7987 6.84529 51.5009 6.8659C52.6958 6.8659 55.4745 7.2719 55.4745 11.0443L55.5025 17.9238Z" fill="#111D4A"/>
<path d="M88.5546 18.0137H86.0802C86.0684 18.0143 86.0565 18.0121 86.0461 18.0072C86.0351 18.0023 86.0256 17.9948 86.0185 17.9855C85.5001 17.2637 84.3949 15.5382 84.2767 15.4085L84.2259 15.3239C83.837 14.8108 82.9184 13.6322 81.6893 13.3672L80.7592 14.3315V17.9404C80.7592 17.9463 80.7583 17.9521 80.7559 17.9576C80.754 17.9631 80.7502 17.9681 80.7464 17.9723C80.7421 17.9765 80.7369 17.9798 80.7317 17.982C80.726 17.9843 80.7203 17.9855 80.7146 17.9855H78.4149C78.3992 17.9841 78.385 17.9769 78.3745 17.9654C78.3641 17.954 78.3584 17.9389 78.3584 17.9234V2.96899C78.3584 2.95403 78.3641 2.93969 78.375 2.92912C78.3855 2.91854 78.3997 2.9126 78.4149 2.9126H80.7592C80.7716 2.9126 80.783 2.91735 80.7915 2.92581C80.8 2.93427 80.8048 2.94575 80.8048 2.95772V11.4161L85.314 6.7922H85.3529H87.9289C88.0025 6.7922 88.0362 6.7922 88.0642 6.84295C88.0927 6.89371 88.0642 6.93881 88.0642 6.98956L83.3186 11.8108C84.3726 12.3725 85.2789 13.1764 85.962 14.1566L86.0128 14.2243C86.1704 14.4273 87.9403 16.9536 88.6111 17.8953C88.6268 17.9027 88.6392 17.9161 88.6448 17.9325C88.6505 17.9489 88.6496 17.967 88.642 17.9827C88.6344 17.9983 88.6211 18.0104 88.605 18.0162C88.5884 18.0221 88.5703 18.0211 88.5546 18.0137Z" fill="#111D4A"/>
<path d="M36.7733 4.11377C36.7789 4.4024 36.6987 4.68617 36.5426 4.92898C36.3864 5.17178 36.1617 5.36262 35.8968 5.47723C35.6318 5.59184 35.339 5.62503 35.0552 5.57257C34.7715 5.52011 34.5098 5.38439 34.3032 5.18266C34.0969 4.98093 33.9551 4.72234 33.896 4.43975C33.8369 4.15719 33.8633 3.8634 33.9716 3.59583C34.08 3.32825 34.2654 3.09897 34.5043 2.93714C34.7433 2.77533 35.0249 2.6883 35.3136 2.68711C35.503 2.68488 35.6911 2.72 35.8671 2.79051C36.043 2.86099 36.2033 2.96546 36.3388 3.09793C36.4744 3.23042 36.5826 3.38831 36.6571 3.56261C36.7317 3.7369 36.7712 3.9242 36.7733 4.11377Z" fill="#111D4A"/>
<path d="M70.9317 6.56689C67.6118 6.56689 65.5547 8.77174 65.5547 12.3243C65.5547 15.8768 67.6118 18.0816 70.9317 18.0816C74.2517 18.0816 76.3429 15.8711 76.3429 12.3186C76.3429 8.76609 74.2517 6.56689 70.9317 6.56689ZM73.0795 15.3016C72.7909 15.5672 72.4524 15.7724 72.0835 15.9051C71.7151 16.0378 71.3234 16.0953 70.9317 16.0741C68.3899 16.0741 67.8658 13.9652 67.8658 12.2058C67.8658 9.75291 68.8632 8.55743 70.9317 8.55743C73.0002 8.55743 73.9868 9.81491 73.9868 12.3074C73.9981 13.6663 73.6881 14.6757 73.0795 15.296V15.3016Z" fill="#111D4A"/>
<path d="M98.958 14.5853C98.9072 14.5232 98.7999 14.5853 98.7496 14.5853L96.7594 14.8841C96.7257 14.8848 96.693 14.8952 96.665 14.9143C96.637 14.9333 96.6147 14.96 96.6018 14.9913C96.3853 15.349 96.0848 15.6484 95.7259 15.8636C95.3675 16.0788 94.962 16.2033 94.5443 16.2262C94.0026 16.3028 93.4495 16.228 92.9477 16.01C92.4449 15.7921 92.0129 15.4395 91.6981 14.9913C91.3478 14.5388 91.1289 13.9982 91.0667 13.4293V13.3898L96.8102 12.6004C97.1649 12.5591 97.5048 12.4357 97.8034 12.2399C98.1016 12.0441 98.3503 11.7814 98.5293 11.4726C98.696 11.1539 98.7852 10.8006 98.79 10.4412C98.7947 10.0817 98.7154 9.72613 98.5578 9.40307C98.0232 8.24334 97.0623 7.33448 95.875 6.86556C95.038 6.54663 94.135 6.44399 93.2482 6.56723C92.3613 6.69043 91.5201 7.03548 90.8018 7.57043C90.1447 8.09493 89.6154 8.76177 89.2531 9.52071C88.8909 10.2796 88.7053 11.1109 88.7105 11.9519C88.683 12.4986 88.7134 13.0468 88.8012 13.5871C89.2014 15.8991 90.8863 18.2336 93.834 18.2336C97.3515 18.2336 98.6988 16.0683 98.9466 14.7713C98.9803 14.7319 99.0197 14.6304 98.958 14.5853ZM91.6307 9.66247C91.897 9.33095 92.2284 9.0574 92.6049 8.85862C92.9809 8.65984 93.3935 8.54001 93.8174 8.5065C94.2077 8.42992 94.6102 8.44839 94.9919 8.56024C95.3736 8.67214 95.7226 8.87414 96.0098 9.14931C96.2358 9.3619 96.4262 9.60944 96.5738 9.88238C96.6161 9.9703 96.6384 10.0667 96.6384 10.1643C96.6384 10.262 96.6161 10.3584 96.5738 10.4463C96.5354 10.5365 96.4741 10.6152 96.3958 10.6746C96.3179 10.7339 96.2254 10.7718 96.1285 10.7846L90.8806 11.5177C90.9618 10.8397 91.2291 10.1974 91.653 9.66247H91.6307Z" fill="#111D4A"/>
<path d="M110.325 11.2078V17.9238C110.325 17.9403 110.319 17.9561 110.307 17.9677C110.296 17.9793 110.279 17.9859 110.263 17.9859H108.008C107.993 17.9859 107.979 17.9799 107.968 17.9694C107.958 17.9588 107.952 17.9444 107.952 17.9295V12.3413C107.952 12.3413 107.952 11.4165 107.907 10.5763C107.899 10.2948 107.835 10.0177 107.719 9.76123C107.603 9.50472 107.437 9.2738 107.231 9.082C107.017 8.91341 106.771 8.79164 106.508 8.7246C106.245 8.65757 105.971 8.64679 105.703 8.69289C104.637 8.83033 103.664 9.3687 102.981 10.1985V17.9238C102.981 17.9403 102.974 17.9561 102.963 17.9677C102.951 17.9793 102.935 17.9859 102.919 17.9859H100.664C100.648 17.9859 100.632 17.9793 100.621 17.9677C100.609 17.9561 100.602 17.9403 100.602 17.9238V6.95046C100.602 6.93403 100.609 6.91822 100.621 6.90659C100.632 6.89496 100.648 6.88845 100.664 6.88845H102.552C102.569 6.88845 102.585 6.89496 102.596 6.90659C102.608 6.91822 102.615 6.93403 102.615 6.95046V8.02188C103.567 7.15783 104.796 6.65853 106.081 6.6121C107.163 6.54445 110.325 6.60645 110.325 11.2078Z" fill="#111D4A"/>
</g>
<defs>
<linearGradient id="paint0_linear_2033_385" x1="22.7129" y1="5.92105" x2="4.29862" y2="16.3638" gradientUnits="userSpaceOnUse">
<stop stop-color="#0CC5FF"/>
<stop offset="1" stop-color="#007FFF"/>
</linearGradient>
<clipPath id="clip0_2033_385">
<rect width="110" height="19" fill="white" transform="translate(0.5 0.913574)"/>
</clipPath>
</defs>
</svg>
