<svg width="426" height="304" viewBox="0 0 426 304" fill="none" xmlns="http://www.w3.org/2000/svg">
<g clip-path="url(#clip0)">
<rect x="32.6182" y="285.035" width="72.5545" height="11.5843" rx="5.79216" stroke="black" stroke-width="1.8291"/>
<rect x="2.13233" y="272.842" width="72.5545" height="11.5843" rx="5.79216" stroke="black" stroke-width="1.8291"/>
<rect x="16.7661" y="259.428" width="72.5545" height="12.8037" rx="6.40186" stroke="black" stroke-width="1.8291"/>
<rect x="133.676" y="6.85769" width="144.499" height="287.477" rx="26.6183" fill="white" stroke="black" stroke-width="1.52104"/>
<rect x="140.823" y="14.007" width="130.2" height="273.178" rx="20.9898" fill="white" stroke="black" stroke-width="0.609701"/>
<path d="M226.769 125.344C228.174 144.36 215.95 153.347 204.992 154.306C194.804 155.197 185.215 148.937 184.374 139.319C183.679 131.373 188.591 127.99 192.449 127.652C196.417 127.305 199.752 130.042 200.042 133.355C200.321 136.542 198.333 137.992 196.949 138.113C195.857 138.209 194.481 137.543 194.356 136.119C194.249 134.893 194.716 134.728 194.602 133.427C194.399 131.111 192.381 130.84 191.275 130.937C189.936 131.054 187.507 132.616 187.847 136.506C188.191 140.431 191.953 143.531 196.886 143.099C202.208 142.634 205.915 138.491 206.193 132.677C206.205 132.408 206.22 132.128 206.384 131.785C206.383 131.782 206.386 131.78 206.386 131.777C206.435 131.673 206.495 131.563 206.574 131.446C206.573 131.44 206.578 131.435 206.585 131.428C206.699 131.257 206.844 131.069 207.032 130.864C207.035 130.859 207.035 130.859 207.038 130.859C207.176 130.704 207.339 130.536 207.527 130.358C209.851 128.165 218.225 122.99 226.145 124.629C226.208 124.643 226.268 124.664 226.325 124.691L226.327 124.691C226.573 124.812 226.75 125.058 226.769 125.344Z" fill="#E8E8E8"/>
<ellipse cx="205.001" cy="263.5" rx="8" ry="8.5" fill="#E8E8E8"/>
<rect x="232.295" y="85.9676" width="19.5104" height="7.31642" rx="1.8291" stroke="white" stroke-width="1.2194"/>
<path d="M188.626 250.29C188.626 276.626 167.276 297.975 140.94 297.975C114.604 297.975 93.2549 276.626 93.2549 250.29C93.2549 223.954 114.604 202.604 140.94 202.604C167.276 202.604 188.626 223.954 188.626 250.29Z" fill="white" stroke="black" stroke-width="1.8291"/>
<path d="M179.514 250.29C179.514 271.595 162.244 288.865 140.939 288.865C119.635 288.865 102.364 271.595 102.364 250.29C102.364 228.986 119.635 211.715 140.939 211.715C162.244 211.715 179.514 228.986 179.514 250.29Z" stroke="black" stroke-width="0.609701"/>
<path d="M139.17 273.375V267.695C136.156 267.639 133.037 266.626 131.218 265.22L132.465 261.453C134.627 262.995 137.249 263.842 139.95 263.87C143.641 263.87 146.136 261.565 146.136 258.359C146.136 255.266 144.108 253.354 140.262 251.667C134.96 249.418 131.686 246.831 131.686 241.939C131.686 237.271 134.752 233.728 139.534 232.884V227.205H142.757V232.66C145.16 232.691 147.504 233.374 149.514 234.628L148.215 238.339C146.287 237.082 144.002 236.415 141.665 236.427C137.663 236.427 136.156 239.014 136.156 241.264C136.156 244.188 138.079 245.65 142.601 247.675C147.955 250.037 150.658 252.961 150.658 257.966C150.658 262.408 147.799 266.57 142.445 267.526V273.375H139.17Z" fill="#FAC166"/>
<path d="M91.4238 219.915C91.4238 240.212 74.97 256.666 54.6733 256.666C34.3766 256.666 17.9229 240.212 17.9229 219.915C17.9229 199.619 34.3766 183.165 54.6733 183.165C74.97 183.165 91.4238 199.619 91.4238 219.915Z" fill="white" stroke="black" stroke-width="1.8291"/>
<path d="M84.5007 219.915C84.5007 236.388 71.1466 249.742 54.6735 249.742C38.2004 249.742 24.8464 236.388 24.8464 219.915C24.8464 203.442 38.2004 190.088 54.6735 190.088C71.1466 190.088 84.5007 203.442 84.5007 219.915Z" stroke="black" stroke-width="0.609701"/>
<path d="M54.0661 236.925V232.74C51.9934 232.699 49.8493 231.953 48.5986 230.917L49.4562 228.141C50.9425 229.278 52.7449 229.902 54.6021 229.922C57.1393 229.922 58.8546 228.223 58.8546 225.862C58.8546 223.582 57.4609 222.174 54.8165 220.93C51.1715 219.273 48.9202 217.367 48.9202 213.762C48.9202 210.322 51.0286 207.712 54.3163 207.09V202.905H56.5318V206.925C58.1839 206.948 59.7953 207.451 61.1774 208.375L60.2839 211.11C58.9584 210.184 57.3877 209.692 55.7814 209.701C53.0299 209.701 51.9935 211.607 51.9935 213.265C51.9935 215.419 53.3156 216.497 56.4247 217.989C60.1053 219.729 61.9636 221.884 61.9636 225.571C61.9636 228.845 59.9981 231.911 56.3174 232.616V236.925H54.0661Z" fill="#E8E8E8"/>
<path d="M378.474 267.908L380.904 278.843C380.904 278.843 376.5 280.417 371.842 282.47C367.184 284.523 362.679 289.173 362.679 289.173L390.928 289.173L386.371 267.908L378.474 267.908Z" fill="white" stroke="black" stroke-width="1.8291"/>
<path d="M388.798 267.995L393.643 278.866C393.643 278.866 388.343 280.417 383.685 282.47C376.942 285.442 371.46 289.173 371.46 289.173L407.631 289.173L397.39 266.564L388.798 267.995Z" fill="white" stroke="black" stroke-width="1.8291"/>
<path d="M400.105 142.215C387.652 142.215 363.283 147.015 363.283 147.015C363.283 147.015 374.218 230.243 377.262 277.484L392.443 274.59C392.443 192.578 400.105 142.215 400.105 142.215Z" fill="#2A80EA" stroke="black" stroke-width="1.8291"/>
<path d="M406.181 141C393.727 141 369.358 145.8 369.358 145.8C369.358 145.8 385.146 229.028 388.191 276.269H402.771C402.771 194.256 406.181 141 406.181 141Z" fill="#2A80EA" stroke="black" stroke-width="1.8291"/>
<mask id="mask0" mask-type="alpha" maskUnits="userSpaceOnUse" x="348" y="140" width="60" height="141">
<path d="M395.007 177.339L406.181 141C371.666 141 355.703 141.293 368.97 181.201C362.321 212.518 357.954 246.67 349.603 276.319L360.531 279.501C367.222 257.396 377.131 235.49 384.281 212.237" stroke="white" stroke-width="1.8291"/>
</mask>
<g mask="url(#mask0)">
</g>
<path fill-rule="evenodd" clip-rule="evenodd" d="M408.049 58.2884L412.78 50.8969V42.8361L404.56 37.353H396.531L386.615 43.833L390.105 44.83L390.603 45.3284C391.169 49.1355 398.547 52.1816 400.572 53.3038L408.049 58.2884Z" fill="black" stroke="black" stroke-width="1.8291"/>
<path fill-rule="evenodd" clip-rule="evenodd" d="M388.447 43.3281L413.029 43.9507L413.047 43.5568L413.34 37.5301L413.703 32.1968L388.796 34.6267L388.494 42.3879L388.447 43.3281Z" fill="white" stroke="black" stroke-width="1.8291"/>
<path fill-rule="evenodd" clip-rule="evenodd" d="M388.437 40.2753L413.096 41.9167V36.4492L388.796 37.0567L388.437 40.2753Z" fill="white" stroke="black" stroke-width="1.8291"/>
<path fill-rule="evenodd" clip-rule="evenodd" d="M388.521 44.8527L388.802 43.4075C389.287 41.4849 403.867 42.2189 403.867 42.2189L412.535 44.8527L412.78 46.0887C424.577 46.4261 424.864 45.3491 424.951 43.5721C425.045 41.6332 414.308 39.5382 400.969 38.8926C387.63 38.2471 376.74 39.2956 376.646 41.2344C376.583 42.5306 381.361 43.8967 388.521 44.8527Z" fill="black"/>
<path d="M398.579 69.2544L397.084 62.9208H393.096C393.096 62.9208 390.759 58.7969 390.258 56.2945C390.133 55.6704 388.61 55.2976 388.61 55.2976C388.61 55.2976 389.767 52.9885 389.726 52.3068C389.586 49.9693 389.771 47.4796 390.668 45.3364L396.087 50.8114H397.122L400.612 47.3222L402.107 52.3068L400.573 53.3037L406.056 56.2945L403.065 63.2729L402.567 68.756" fill="white"/>
<path d="M398.579 69.2544L397.084 62.9208H393.096C393.096 62.9208 390.759 58.7969 390.258 56.2945C390.133 55.6704 388.61 55.2976 388.61 55.2976C388.61 55.2976 389.767 52.9885 389.726 52.3068C389.586 49.9693 389.771 47.4796 390.668 45.3364L396.087 50.8114H397.122L400.612 47.3222L402.107 52.3068L400.573 53.3037L406.056 56.2945L403.065 63.2729L402.567 68.756" stroke="black" stroke-width="1.8291"/>
<path d="M388.796 69.2553L385.151 77.7603L407.814 71.9799L408.844 66.2178L388.796 69.2553Z" fill="white" stroke="black" stroke-width="1.8291"/>
<path d="M337.829 144.085L315.14 137.603L330.48 137.602L330.766 137.602L331 137.44L338.663 132.135L342.505 132.135L337.829 144.085Z" fill="white" stroke="black" stroke-width="1.8291"/>
<path d="M346.082 90.9642L346.172 91.1252L346.318 91.2387L352.103 95.7471L351.214 101.742L339.289 97.7562L339.29 80.7976L339.29 80.7975L339.29 78.8354L346.082 90.9642Z" fill="white" stroke="black" stroke-width="1.8291"/>
<path d="M337.309 145.859L379.686 127.215L377.401 117.367L346.88 119.925L337.309 145.859Z" fill="white" stroke="black" stroke-width="1.8291"/>
<path d="M387.584 72.2925L350.104 149.492L415.529 139.725L410.854 68.6475L387.584 72.2925Z" fill="white" stroke="black" stroke-width="1.8291"/>
<path d="M394.265 71.6852L352.348 148.23L414.312 139.725L410.06 69.3457L394.265 71.6852Z" fill="white" stroke="black" stroke-width="0.609701"/>
<path d="M396.751 113.986L401.133 82.6956L393.724 77.1526L379.687 106.301L396.751 113.986Z" fill="white" stroke="black" stroke-width="1.8291"/>
<path d="M345.498 112.442L397.911 120.893L402.163 82.0126L393.05 75.9376L383.937 95.9021L357.336 85.103L345.498 112.442Z" fill="white" stroke="black" stroke-width="1.8291"/>
<path d="M394.775 76.8224L397.824 120.11" stroke="black" stroke-width="0.609701"/>
<path d="M381.359 145.718L390.198 276.77" stroke="black" stroke-width="0.609701"/>
</g>
<mask id="path-36-inside-1" fill="white">
<path d="M223 106.43V63.2557C223 52.1611 229.695 42.1633 239.954 37.9391L270.668 25.2924C277.345 22.5428 284.839 22.5428 291.517 25.2924L322.23 37.9391C332.489 42.1633 339.184 52.1524 339.184 63.247V106.43C339.184 106.43 339.184 124.199 318.681 140.601C305.368 151.252 293.496 156.716 286.806 159.238C283.095 160.637 279.071 160.715 275.334 159.386C268.636 157.003 256.787 151.671 243.503 140.601C223 123.515 223 106.43 223 106.43Z"/>
</mask>
<path d="M223 106.43V63.2557C223 52.1611 229.695 42.1633 239.954 37.9391L270.668 25.2924C277.345 22.5428 284.839 22.5428 291.517 25.2924L322.23 37.9391C332.489 42.1633 339.184 52.1524 339.184 63.247V106.43C339.184 106.43 339.184 124.199 318.681 140.601C305.368 151.252 293.496 156.716 286.806 159.238C283.095 160.637 279.071 160.715 275.334 159.386C268.636 157.003 256.787 151.671 243.503 140.601C223 123.515 223 106.43 223 106.43Z" fill="white"/>
<path d="M322.23 37.9391L321.651 39.3456L322.23 37.9391ZM291.517 25.2924L292.096 23.886L291.517 25.2924ZM243.503 140.601L242.529 141.77V141.77L243.503 140.601ZM275.334 159.386L275.843 157.953L275.334 159.386ZM286.806 159.238L287.343 160.661L286.806 159.238ZM318.681 140.601L319.631 141.789L318.681 140.601ZM270.668 25.2924L270.088 23.886V23.886L270.668 25.2924ZM239.954 37.9391L239.375 36.5326L239.954 37.9391ZM221.479 63.2557V106.43H224.521V63.2557H221.479ZM340.705 106.43V63.247H337.663V106.43H340.705ZM322.809 36.5326L292.096 23.886L290.937 26.6989L321.651 39.3456L322.809 36.5326ZM223 106.43C221.479 106.43 221.479 106.431 221.479 106.432C221.479 106.432 221.479 106.433 221.479 106.434C221.479 106.436 221.479 106.438 221.479 106.44C221.479 106.444 221.479 106.45 221.479 106.456C221.479 106.469 221.479 106.487 221.48 106.508C221.481 106.551 221.482 106.61 221.485 106.684C221.491 106.834 221.502 107.047 221.524 107.318C221.567 107.862 221.653 108.641 221.821 109.623C222.158 111.587 222.826 114.361 224.151 117.673C226.804 124.307 232.077 133.06 242.529 141.77L244.477 139.433C234.426 131.057 229.448 122.724 226.975 116.543C225.737 113.448 225.124 110.883 224.82 109.109C224.668 108.222 224.593 107.534 224.556 107.076C224.538 106.847 224.529 106.676 224.525 106.567C224.523 106.512 224.522 106.473 224.521 106.45C224.521 106.439 224.521 106.431 224.521 106.428C224.521 106.426 224.521 106.425 224.521 106.426C224.521 106.426 224.521 106.426 224.521 106.427C224.521 106.427 224.521 106.428 224.521 106.428C224.521 106.429 224.521 106.43 223 106.43ZM242.529 141.77C255.972 152.972 267.985 158.386 274.824 160.819L275.843 157.953C269.287 155.62 257.602 150.37 244.477 139.433L242.529 141.77ZM287.343 160.661C294.153 158.093 306.172 152.557 319.631 141.789L317.731 139.414C304.564 149.947 292.838 155.338 286.27 157.815L287.343 160.661ZM319.631 141.789C330.103 133.412 335.382 124.646 338.036 117.923C339.361 114.566 340.028 111.728 340.364 109.712C340.532 108.704 340.617 107.902 340.661 107.342C340.682 107.063 340.693 106.844 340.699 106.69C340.702 106.613 340.704 106.552 340.704 106.509C340.705 106.487 340.705 106.47 340.705 106.456C340.705 106.45 340.705 106.444 340.705 106.44C340.705 106.437 340.705 106.436 340.705 106.434C340.705 106.433 340.705 106.432 340.705 106.431C340.705 106.43 340.705 106.43 339.184 106.43C337.663 106.43 337.663 106.429 337.663 106.428C337.663 106.428 337.663 106.427 337.663 106.427C337.663 106.426 337.663 106.426 337.663 106.426C337.663 106.426 337.663 106.427 337.663 106.429C337.663 106.433 337.663 106.441 337.663 106.453C337.662 106.478 337.661 106.519 337.659 106.576C337.655 106.691 337.646 106.87 337.628 107.108C337.591 107.584 337.516 108.298 337.363 109.212C337.059 111.041 336.444 113.67 335.206 116.806C332.735 123.068 327.762 131.389 317.731 139.414L319.631 141.789ZM270.088 23.886L239.375 36.5326L240.533 39.3456L271.247 26.6989L270.088 23.886ZM340.705 63.247C340.705 51.5355 333.637 40.9913 322.809 36.5326L321.651 39.3456C331.34 43.3353 337.663 52.7694 337.663 63.247H340.705ZM274.824 160.819C278.911 162.273 283.305 162.184 287.343 160.661L286.27 157.815C282.884 159.091 279.231 159.158 275.843 157.953L274.824 160.819ZM224.521 63.2557C224.521 52.7775 230.845 43.3351 240.533 39.3456L239.375 36.5326C228.546 40.9915 221.479 51.5448 221.479 63.2557H224.521ZM292.096 23.886C285.047 20.9836 277.137 20.9836 270.088 23.886L271.247 26.6989C277.553 24.102 284.631 24.102 290.937 26.6989L292.096 23.886Z" fill="black" mask="url(#path-36-inside-1)"/>
<path d="M228.35 105.049V67.1794C228.35 56.2315 234.954 46.3648 245.075 42.1915L270.697 31.627C277.296 28.9058 284.704 28.9058 291.303 31.627L316.925 42.1915C327.046 46.3648 333.65 56.2293 333.65 67.1772V105.049V105.049L333.65 105.05L333.65 105.057L333.649 105.089C333.649 105.118 333.648 105.163 333.646 105.222C333.641 105.34 333.632 105.517 333.615 105.749C333.579 106.212 333.507 106.895 333.362 107.762C333.074 109.497 332.495 111.97 331.336 114.911C329.019 120.789 324.378 128.543 315.075 135.995C303.287 145.439 292.744 150.404 286.588 152.777C282.958 154.177 279.01 154.252 275.361 152.919C269.203 150.669 258.686 145.81 246.93 136C237.623 128.233 232.981 120.477 230.663 114.675C229.504 111.773 228.926 109.358 228.637 107.673C228.493 106.83 228.421 106.17 228.385 105.722C228.368 105.498 228.359 105.328 228.354 105.214C228.352 105.158 228.351 105.115 228.351 105.087L228.35 105.057L228.35 105.05L228.35 105.049L228.35 105.049C228.35 105.049 228.35 105.049 228 105.049H228.35Z" fill="url(#paint0_linear)" stroke="black" stroke-width="0.7"/>
<path d="M259.122 83.2056L277.951 102.035L306.195 70.6528" stroke="white" stroke-width="5" stroke-linecap="round" stroke-linejoin="round"/>
<defs>
<linearGradient id="paint0_linear" x1="281" y1="27" x2="281" y2="155" gradientUnits="userSpaceOnUse">
<stop stop-color="#AACFFF"/>
<stop offset="1" stop-color="#C4DEFF" stop-opacity="0"/>
</linearGradient>
<clipPath id="clip0">
<rect width="425.25" height="303.75" fill="white"/>
</clipPath>
</defs>
</svg>
