<svg width="350" height="250" viewBox="0 0 350 250" fill="none" xmlns="http://www.w3.org/2000/svg">
<g clip-path="url(#clip0_1921_599)">
<mask id="mask0_1921_599" style="mask-type:luminance" maskUnits="userSpaceOnUse" x="0" y="0" width="350" height="250">
<path d="M0 0H350V250H0V0Z" fill="white"/>
</mask>
<g mask="url(#mask0_1921_599)">
<path d="M0 0H350V250H0V0Z" fill="white"/>
<path d="M84.4022 232.046L84.8798 231.898L84.7644 231.527L84.3759 231.547L84.4022 232.046ZM86.0564 237.375L85.5789 237.523L85.7409 238.044L86.2461 237.837L86.0564 237.375ZM105.619 234.088L105.869 234.52L106.867 233.943L105.764 233.609L105.619 234.088ZM83.2275 247.049L82.763 247.234L82.9771 247.772L83.478 247.482L83.2275 247.049ZM77.3982 232.416L77.3719 231.917L76.6758 231.954L76.9337 232.601L77.3982 232.416ZM83.9247 232.195L85.5789 237.523L86.534 237.226L84.8798 231.898L83.9247 232.195ZM86.0564 237.375C86.2461 237.837 86.2461 237.837 86.2461 237.837C86.246 237.837 86.2462 237.837 86.2461 237.837C86.2464 237.837 86.2472 237.837 86.2479 237.836C86.2493 237.836 86.2515 237.835 86.2544 237.834C86.2602 237.831 86.2691 237.828 86.2811 237.823C86.3049 237.813 86.3408 237.799 86.388 237.78C86.4826 237.743 86.6228 237.687 86.804 237.618C87.1665 237.478 87.6928 237.281 88.3454 237.05C89.6513 236.588 91.4602 235.993 93.4735 235.461C95.4884 234.928 97.6984 234.461 99.8084 234.251C101.926 234.04 103.904 234.091 105.474 234.566L105.764 233.609C104.011 233.079 101.883 233.039 99.7092 233.256C97.5284 233.473 95.2631 233.954 93.218 234.494C91.1714 235.035 89.3357 235.639 88.0119 236.107C87.3497 236.341 86.8148 236.542 86.4449 236.684C86.2599 236.755 86.1161 236.812 86.0182 236.851C85.9693 236.871 85.9318 236.886 85.9063 236.896C85.8936 236.901 85.8839 236.905 85.8773 236.908C85.874 236.909 85.8714 236.91 85.8697 236.911C85.8688 236.911 85.8681 236.911 85.8676 236.912C85.8674 236.912 85.8678 236.912 85.8676 236.912C85.8675 236.912 85.8668 236.912 86.0564 237.375ZM105.368 233.655L82.977 246.616L83.478 247.482L105.869 234.52L105.368 233.655ZM83.692 246.864L77.8627 232.231L76.9337 232.601L82.763 247.234L83.692 246.864ZM77.4246 232.915L84.4286 232.546L84.3759 231.547L77.3719 231.917L77.4246 232.915Z" fill="black"/>
<path d="M24.2275 222.308L19.6911 231.022C19.6911 231.022 22.2126 234.804 24.0633 238.563C26.7424 244.004 28.2247 249.256 28.2247 249.256L8.93359 232.97L19.5672 216.861L24.2275 222.308Z" stroke="black"/>
<path d="M77.2322 127.659C67.6002 124.153 47.402 121.006 47.402 121.006C47.402 121.006 41.3016 148.489 34.0426 178.095L11.4873 225.847L24.0425 227.882L52.1849 181.5C66.7275 146.885 77.2322 127.659 77.2322 127.659Z" fill="#2A80EA" stroke="black"/>
<path d="M40.311 124.049L75.0005 128.5C75.0005 128.5 77.9149 203.603 86.877 235.423L77.8828 238.042C64.4929 192.536 55.9765 174.994 40.311 124.049Z" fill="#2A80EA" stroke="black"/>
<path d="M68.5 128.5L82.5001 216" stroke="black" stroke-width="0.5"/>
<path d="M100.73 83.5L103.971 71H96.004L92.7632 83.5H100.73Z" stroke="black"/>
<path d="M100.73 83.5L103.971 71H97.004L93.7632 83.5H100.73Z" fill="#2A80EA" stroke="black"/>
<path fill-rule="evenodd" clip-rule="evenodd" d="M57.2006 65.8L53.8506 63.575L51.6006 54.5125L60.4612 51L61.6006 49L70.6113 54.5125L68.0738 55.2375L67.7113 55.6C67.2996 58.3687 61.9341 60.5839 60.4613 61.4L57.2006 65.8Z" fill="black"/>
<path d="M61.9113 73L62.9988 68.3939L66.8006 67.4L67.9628 63.5751C68.0537 63.1212 69.1613 62.8501 69.1613 62.8501C69.1613 62.8501 68.3196 61.1708 68.3494 60.6751L67.6645 55.606L63.7238 59.5876H62.9706L60.4331 57.0501L59.3456 60.6751L60.4613 61.4L57.6006 65L58.6488 68.65L59.0113 72.6375" fill="white"/>
<path d="M61.9113 73L62.9988 68.3939L66.8006 67.4L67.9628 63.5751C68.0537 63.1212 69.1613 62.8501 69.1613 62.8501C69.1613 62.8501 68.3196 61.1708 68.3494 60.6751L67.6645 55.606L63.7238 59.5876H62.9706L60.4331 57.0501L59.3456 60.6751L60.4613 61.4L57.6006 65L58.6488 68.65L59.0113 72.6375" stroke="black"/>
<path d="M70.5 74L69.3253 77.7751L54.5 75.625L57 69L70.5 74Z" fill="white" stroke="black"/>
<path d="M102.965 97.3925L69.9648 104.042L64.9648 97.3925L85.4648 85.0425L102.965 97.3925Z" stroke="black"/>
<path d="M69.999 76L80.4648 130.042L30.4648 125.042L55.499 70.5L69.999 76Z" fill="white" stroke="black"/>
<path d="M64.5 74L80.4648 130.042L30.4648 125.042L55.499 70.5L64.5 74Z" fill="white" stroke="black" stroke-width="0.5"/>
<path d="M104 87.7467V77.883L102.257 78.9286L101.612 79.3161L101.505 78.5706L101.133 75.9624L93.713 82.2024L95.5081 86.8697L95.6267 87.178L95.3896 87.4081L92.7827 89.9375L96.9933 92.885L104 87.7467Z" fill="white" stroke="black"/>
<path d="M14.1064 149.287L16.6345 145.383L17.0065 144.808L16.3459 144.628L7.86182 142.322L15.0144 133.27L22.3868 134.987L22.7178 135.064L22.9113 134.785L27.2174 128.565L34.7337 130.333L25.1092 147.168L14.1064 149.287Z" stroke="black"/>
<path d="M6 126.5L36.3828 94L56.3828 78L64.3828 81L49.3828 103L38.501 135.549L6 126.5Z" fill="white" stroke="black"/>
<path d="M56.5 78L49 103" stroke="black" stroke-width="0.5"/>
<path d="M236.295 5.62378H161.453C149.397 5.62378 139.624 15.3969 139.624 27.4527V219.548C139.624 231.604 149.397 241.377 161.453 241.377H236.295C248.351 241.377 258.124 231.604 258.124 219.548V27.4527C258.124 15.3969 248.351 5.62378 236.295 5.62378Z" fill="white" stroke="black" stroke-width="1.24737"/>
<path d="M235.048 11.4868H162.7C153.193 11.4868 145.487 19.1934 145.487 28.7V218.3C145.487 227.806 153.193 235.513 162.7 235.513H235.048C244.554 235.513 252.261 227.806 252.261 218.3V28.7C252.261 19.1934 244.554 11.4868 235.048 11.4868Z" fill="white" stroke="black" stroke-width="0.5"/>
<path d="M238.422 37.9316H159.968C156.93 37.9316 154.468 40.3941 154.468 43.4316V77.8184C154.468 80.856 156.93 83.3184 159.968 83.3184H238.422C241.46 83.3184 243.922 80.856 243.922 77.8184V43.4316C243.922 40.3941 241.46 37.9316 238.422 37.9316Z" fill="#2A80EA" stroke="#2A80EA"/>
<path d="M177 45.5H164C163.172 45.5 162.5 46.1716 162.5 47V50C162.5 50.8284 163.172 51.5 164 51.5H177C177.828 51.5 178.5 50.8284 178.5 50V47C178.5 46.1716 177.828 45.5 177 45.5Z" stroke="white"/>
<path d="M235 70.5H222C221.172 70.5 220.5 71.1716 220.5 72V75C220.5 75.8284 221.172 76.5 222 76.5H235C235.828 76.5 236.5 75.8284 236.5 75V72C236.5 71.1716 235.828 70.5 235 70.5Z" stroke="white"/>
<path d="M212 54.5H164C163.172 54.5 162.5 55.1716 162.5 56V59C162.5 59.8284 163.172 60.5 164 60.5H212C212.828 60.5 213.5 59.8284 213.5 59V56C213.5 55.1716 212.828 54.5 212 54.5Z" stroke="white"/>
<path d="M273.5 176H334C341.456 176 347.5 182.044 347.5 189.5C347.5 196.956 341.456 203 334 203H273.5V176Z" fill="white" stroke="black"/>
<path d="M324.5 146C324.5 140.753 320.247 136.5 315 136.5H212.5V241.5H315C320.247 241.5 324.5 237.247 324.5 232V146Z" fill="white" stroke="black"/>
<path d="M318.75 150C318.75 145.72 315.28 142.25 311 142.25H214.25V235.75H311C315.28 235.75 318.75 232.28 318.75 228V150Z" fill="white" stroke="black" stroke-width="0.5"/>
<path d="M334.5 195C337.261 195 339.5 192.761 339.5 190C339.5 187.239 337.261 185 334.5 185C331.739 185 329.5 187.239 329.5 190C329.5 192.761 331.739 195 334.5 195Z" stroke="#101010"/>
<path d="M228.881 123.284C231.185 121.531 234.5 123.174 234.5 126.07V218.052C234.5 221.644 232.822 225.029 229.964 227.204L212.5 240.491V135.748L228.881 123.284Z" fill="white" stroke="black"/>
</g>
<circle opacity="0.1" cx="252.5" cy="199.5" r="9.5" fill="#6D72C1"/>
<circle opacity="0.1" cx="276.5" cy="199.5" r="9.5" fill="#4C6377"/>
<circle opacity="0.1" cx="300.5" cy="199.5" r="9.5" fill="#E55F64"/>
<circle opacity="0.1" cx="252.5" cy="175.5" r="9.5" fill="#0790C4"/>
<path opacity="0.1" fill-rule="evenodd" clip-rule="evenodd" d="M276.5 185C281.747 185 286 180.747 286 175.5C286 170.253 281.747 166 276.5 166C271.253 166 267 170.253 267 175.5C267 180.747 271.253 185 276.5 185Z" fill="#F7931A"/>
<path opacity="0.1" fill-rule="evenodd" clip-rule="evenodd" d="M300.5 185C305.747 185 310 180.747 310 175.5C310 170.253 305.747 166 300.5 166C295.253 166 291 170.253 291 175.5C291 180.747 295.253 185 300.5 185Z" fill="#E15A51"/>
</g>
<defs>
<clipPath id="clip0_1921_599">
<rect width="350" height="250" fill="white"/>
</clipPath>
</defs>
</svg>
